<?xml version="1.0" encoding="UTF-8" standalone="no"?>
<!-- Created with Inkscape (http://www.inkscape.org/) -->

<svg
   xmlns:dc="http://purl.org/dc/elements/1.1/"
   xmlns:cc="http://creativecommons.org/ns#"
   xmlns:rdf="http://www.w3.org/1999/02/22-rdf-syntax-ns#"
   xmlns:svg="http://www.w3.org/2000/svg"
   xmlns="http://www.w3.org/2000/svg"
   xmlns:sodipodi="http://sodipodi.sourceforge.net/DTD/sodipodi-0.dtd"
   xmlns:inkscape="http://www.inkscape.org/namespaces/inkscape"
   width="291.20444"
   height="266.27005"
   id="svg2"
   version="1.1"
   inkscape:version="0.48.4 r9939"
   sodipodi:docname="cosneta_logo_vector.svg">
  <defs
     id="defs4" />
  <sodipodi:namedview
     id="base"
     pagecolor="#ffffff"
     bordercolor="#666666"
     borderopacity="1.0"
     inkscape:pageopacity="0.0"
     inkscape:pageshadow="2"
     inkscape:zoom="2.3061587"
     inkscape:cx="145.60222"
     inkscape:cy="142.18389"
     inkscape:document-units="px"
     inkscape:current-layer="layer3"
     showgrid="false"
     inkscape:window-width="1323"
     inkscape:window-height="975"
     inkscape:window-x="100"
     inkscape:window-y="85"
     inkscape:window-maximized="0"
     fit-margin-top="0"
     fit-margin-left="0"
     fit-margin-right="0"
     fit-margin-bottom="0" />
  <metadata
     id="metadata7">
    <rdf:RDF>
      <cc:Work
         rdf:about="">
        <dc:format>image/svg+xml</dc:format>
        <dc:type
           rdf:resource="http://purl.org/dc/dcmitype/StillImage" />
        <dc:title></dc:title>
      </cc:Work>
    </rdf:RDF>
  </metadata>
  <g
     inkscape:groupmode="layer"
     id="layer3"
     inkscape:label="final version"
     style="display:inline"
     transform="translate(-240.60105,-472.15376)">
    <path
       style="fill:#000000;fill-opacity:1;stroke:none"
       d="m 373.15625,472.15625 c -1.35581,-0.0105 -2.74645,0.0146 -4.15625,0.0313 -86.09214,1.0163 -126.51527,79.7891 -128.34375,130.9375 -2.06128,57.6609 53.77284,136.64826 140.0625,135.28125 51.16122,-0.8105 87.79476,-21.06065 112.1875,-49.53125 24.39274,-28.4706 36.11702,-54.73742 38.71875,-98.75 3.56419,-60.29435 -46.84375,-108.84375 -46.84375,-108.84375 0,0 -3.8381,4.41167 -25.5625,25.15625 -27.34658,-20.65055 -44.0323,-33.95507 -86.0625,-34.28125 z m -5.25,53.25 c 3.03803,-0.0547 6.10123,0.10678 9.125,0.46875 19.35207,2.31663 36.21512,10.66706 49.03125,23.8125 9.59563,9.84221 17.82341,25.06541 19.0625,47.40625 1.00182,18.06294 -7.5814,33.7406 -20.34375,46.65625 -10.19117,10.31357 -25.88447,16.00218 -44.71875,17.6875 l 0,0.3125 c -0.15356,17.21792 -0.125,18.40625 -0.125,18.40625 0,0 -7.57525,0.006 -13.71875,-1 C 346.682,675.95606 328.40295,665.91985 318.40625,654.875 306.29039,641.48878 298.1239,623.42336 296,603.46875 c -2.12392,-19.95458 6.40299,-40.50026 25.53125,-58.53125 13.61064,-12.82987 29.96966,-19.2357 46.375,-19.53125 z"
       id="path3064-6"
       inkscape:connector-curvature="0" />
    <path
       style="fill:none;stroke:none;display:inline"
       d="m 372.625,509 c -22.2858,0.41723 -44.2732,6.84292 -62.40625,21.3125 -19.34193,15.43423 -34.2784,40.02593 -34.1875,68.5625 0.10781,33.83863 15.05074,59.55342 35.8125,75.875 20.76176,16.3216 44.19149,24.02919 67.59375,25.28125 19.30903,1.03306 49.16922,-8.29359 66.25,-19.75 6.57317,-4.40876 13.09375,-11.5 13.09375,-11.5 0,0 -1.12705,-1.08408 -17.28125,-16.96875 15.09668,-18.62426 22.50203,-28.28671 23.09375,-58.125 0.46305,-23.34958 -8.48229,-44.65045 -26.65625,-60.03125 -18.17395,-15.3808 -43.028,-24.3592 -60.84375,-24.65625 -1.48719,-0.0248 -2.98303,-0.0278 -4.46875,0 z m -4.71875,16.40625 c 3.03803,-0.0547 6.10123,0.10678 9.125,0.46875 19.35207,2.31663 36.21512,10.66706 49.03125,23.8125 9.59563,9.84221 17.82341,25.06541 19.0625,47.40625 1.00182,18.06294 -7.5814,33.7406 -20.34375,46.65625 -10.19117,10.31357 -25.88447,16.00218 -44.71875,17.6875 l 0,0.3125 c -0.15356,17.21792 -0.125,18.40625 -0.125,18.40625 0,0 -7.57525,0.006 -13.71875,-1 C 346.682,675.95606 328.40295,665.91985 318.40625,654.875 306.29039,641.48878 298.1239,623.42336 296,603.46875 c -2.12392,-19.95458 6.40299,-40.50026 25.53125,-58.53125 13.61064,-12.82987 29.96966,-19.2357 46.375,-19.53125 z"
       id="path3892-9"
       inkscape:connector-curvature="0" />
  </g>
</svg>
