<?xml version="1.0" encoding="UTF-8" standalone="no"?>
<!-- Created with Inkscape (http://www.inkscape.org/) -->

<svg
   xmlns:dc="http://purl.org/dc/elements/1.1/"
   xmlns:cc="http://creativecommons.org/ns#"
   xmlns:rdf="http://www.w3.org/1999/02/22-rdf-syntax-ns#"
   xmlns:svg="http://www.w3.org/2000/svg"
   xmlns="http://www.w3.org/2000/svg"
   xmlns:sodipodi="http://sodipodi.sourceforge.net/DTD/sodipodi-0.dtd"
   xmlns:inkscape="http://www.inkscape.org/namespaces/inkscape"
   width="744.09448819"
   height="1052.3622047"
   id="svg2"
   version="1.1"
   inkscape:version="0.48.4 r9939"
   sodipodi:docname="freerunner_drawing.svg">
  <defs
     id="defs4">
    <marker
       inkscape:stockid="DotM"
       orient="auto"
       refY="0.0"
       refX="0.0"
       id="DotM"
       style="overflow:visible">
      <path
         id="path3884"
         d="M -2.5,-1.0 C -2.5,1.7600000 -4.7400000,4.0 -7.5,4.0 C -10.260000,4.0 -12.5,1.7600000 -12.5,-1.0 C -12.5,-3.7600000 -10.260000,-6.0 -7.5,-6.0 C -4.7400000,-6.0 -2.5,-3.7600000 -2.5,-1.0 z "
         style="fill-rule:evenodd;stroke:#000000;stroke-width:1.0pt"
         transform="scale(0.4) translate(7.4, 1)" />
    </marker>
  </defs>
  <sodipodi:namedview
     id="base"
     pagecolor="#ffffff"
     bordercolor="#666666"
     borderopacity="1.0"
     inkscape:pageopacity="0.0"
     inkscape:pageshadow="2"
     inkscape:zoom="1.4142136"
     inkscape:cx="187.498"
     inkscape:cy="790.63362"
     inkscape:document-units="px"
     inkscape:current-layer="layer1"
     showgrid="false"
     inkscape:window-width="1598"
     inkscape:window-height="972"
     inkscape:window-x="161"
     inkscape:window-y="24"
     inkscape:window-maximized="0" />
  <metadata
     id="metadata7">
    <rdf:RDF>
      <cc:Work
         rdf:about="">
        <dc:format>image/svg+xml</dc:format>
        <dc:type
           rdf:resource="http://purl.org/dc/dcmitype/StillImage" />
        <dc:title />
      </cc:Work>
    </rdf:RDF>
  </metadata>
  <g
     inkscape:label="Layer 1"
     inkscape:groupmode="layer"
     id="layer1"
     style="display:inline;opacity:1">
    <g
       transform="matrix(0.10686336,0.08196943,-0.08196943,0.10686336,208.57039,171.18241)"
       id="g3031">
      <path
         sodipodi:nodetypes="csssscccc"
         inkscape:connector-curvature="0"
         id="path3876"
         d="m -1466.5395,-39.410687 c 0,0 56.5686,72.124891 83.4386,89.095454 26.8701,16.970563 48.0833,35.355339 76.3676,46.669048 28.2842,11.313705 240.4163,79.195955 322.44066,106.066015 82.02439,26.87006 347.89654,103.23759 371.93817,110.30866 24.04163,7.07107 64.49747,-0.17157 64.49747,-0.17157 l 273.2578,-56.64675 -858.7422,-350.646759 z"
         style="fill:#444444;fill-opacity:1;stroke:#000000;stroke-width:5;stroke-linecap:butt;stroke-linejoin:miter;stroke-miterlimit:4;stroke-opacity:1;stroke-dasharray:none" />
      <path
         sodipodi:nodetypes="czzzssssssscc"
         inkscape:connector-curvature="0"
         id="path3864"
         d="m -1179.4541,-459.43212 c 0,0 -23.678,-13.68712 -36.7696,-12.72792 -13.0916,0.9592 -31.0852,13.09667 -48.3553,25.38478 -17.2701,12.28811 -44.7206,35.71519 -69.0244,59.46804 -24.3038,23.75285 -45.9143,47.38457 -63.6396,74.95332 -13.7998,21.46335 -25.5193,43.82394 -35.5269,67.29646 -10.3005,24.15944 -21.2045,50.54921 -29.2843,75.53911 -7.9499,24.58815 -12.86,49.27959 -15.799,74.953314 -1.7701,15.462504 -1.8972,31.461921 1.4142,46.669047 2.0677,9.495729 4.8686,19.596508 11.3137,26.870058 2.5205,2.844519 6.6123,7.564471 9.8995,5.656854 4.8927,-2.839327 0,-16.970562 0,-16.970562 z"
         style="fill:#ffffff;fill-opacity:1;stroke:#000000;stroke-width:5;stroke-linecap:butt;stroke-linejoin:miter;stroke-miterlimit:4;stroke-opacity:1;stroke-dasharray:none" />
      <path
         inkscape:connector-curvature="0"
         id="path3063"
         d="m -1182.8571,-467.63782 c 0,0 639.99996,134.28572 839.99996,177.14286 C -142.85714,-247.63782 420,-116.20925 700,-44.780675 980,26.647897 1991.4286,300.93361 2008.5714,306.6479 c 17.1429,5.71428 48.5715,22.85714 48.5715,22.85714 0,0 8.5714,14.28571 8.5714,34.28571 0,20 -8.5714,91.42858 -25.7143,171.42858 -17.1429,80 -57.1429,222.85714 -68.5714,262.85714 -11.4286,40 -20,54.28571 -42.8572,71.42857 -22.8571,17.14286 -2.8571,28.57143 -57.1428,25.71429 -54.2857,-2.85715 -377.1429,-88.57143 -585.7143,-140 C 1077.1429,703.79075 77.142857,423.79075 -134.28571,363.79075 c -211.42858,-60 -1288.57139,-382.857139 -1308.57139,-388.571425 -20,-5.714285 -17.1429,2.857143 -17.1429,-17.142857 0,-20 8.5714,-79.999998 22.8571,-125.714288 14.2858,-45.71428 51.4286,-137.14285 100,-191.42857 48.5715,-54.28571 82.8572,-88.57143 114.2858,-100 31.4285,-11.42857 40,-8.57143 40,-8.57143 z"
         style="fill:#6d6d6d;fill-opacity:1;stroke:#000000;stroke-width:5;stroke-linecap:butt;stroke-linejoin:bevel;stroke-miterlimit:4;stroke-opacity:1;stroke-dasharray:none" />
      <path
         sodipodi:nodetypes="cssscssssssssssssssssc"
         inkscape:connector-curvature="0"
         id="path3833"
         d="m 2045.7143,329.50504 c 0,0 8.5714,-2.85714 31.4286,0 22.8571,2.85714 49.748,12.80853 57.1428,17.14286 24.1277,14.14214 28.5714,22.85714 31.4286,40 2.8571,17.14285 -102.8572,508.57143 -102.8572,508.57143 0,0 -2.771,31.42857 -19.9138,37.14285 -17.1429,5.71429 -20.0862,11.42857 -42.9433,8.57143 C 1977.1429,938.07647 1394.2857,835.21933 1182.8571,798.07647 971.42857,760.93361 651.42857,689.50504 491.42857,649.50504 c -160,-40 -668.57143,-197.14286 -825.71428,-248.57143 -157.14286,-51.42857 -462.85715,-148.57143 -480,-160 -17.14286,-11.42857 -40,-25.71428 -42.85715,-31.42857 -2.85714,-5.71429 -20,-20 0,-22.85714 20,-2.85715 28.57143,-5.71429 48.57143,-2.85715 20,2.85715 48.57143,11.42858 88.57143,20 40,8.57143 237.14286,62.85715 394.28571,105.71429 157.14286,42.85714 2034.28569,565.71429 2094.28569,565.71429 60,0 120,25.71428 125.7143,14.28571 5.7143,-11.42857 51.4286,-34.28571 54.2857,-54.28571 2.8572,-20 57.1429,-177.14286 62.8572,-217.14286 5.7143,-40 45.7143,-197.14286 45.7143,-222.85714 0,-25.71429 -11.4286,-65.71429 -11.4286,-65.71429 z"
         style="fill:#ffffff;fill-opacity:1;stroke:#000000;stroke-width:5;stroke-linecap:butt;stroke-linejoin:miter;stroke-miterlimit:4;stroke-opacity:1;stroke-dasharray:none" />
      <path
         sodipodi:nodetypes="aaaaa"
         inkscape:connector-curvature="0"
         id="path3835"
         d="m -148.85714,34.362183 c -25.35669,-0.627947 -57.03569,-25.207592 -56.85715,-50.571429 0.22243,-31.59904 40.11956,-61.432631 71.71429,-62 26.75352,-0.480432 62.565131,23.527877 62.571429,50.285714 0.0078,33.12383 -44.314889,63.10576 -77.428569,62.285715 z"
         style="fill:#595959;fill-opacity:1;stroke:#000000;stroke-width:5;stroke-linecap:butt;stroke-linejoin:miter;stroke-miterlimit:4;stroke-opacity:1;stroke-dasharray:none" />
      <path
         sodipodi:nodetypes="aaaaa"
         inkscape:connector-curvature="0"
         id="path3835-2"
         d="m 443.12432,194.49604 c -26.81207,-0.66537 -60.30934,-26.70928 -60.12055,-53.58412 0.2352,-33.48147 42.42229,-65.092328 75.83045,-65.693497 28.28907,-0.509051 66.15614,24.929497 66.1628,53.281377 0.008,35.0971 -46.85841,66.86512 -81.8727,65.99624 z"
         style="fill:#595959;fill-opacity:1;stroke:#000000;stroke-width:5.29242039;stroke-linecap:butt;stroke-linejoin:miter;stroke-miterlimit:4;stroke-opacity:1;stroke-dasharray:none" />
      <path
         sodipodi:nodetypes="aaaaa"
         inkscape:connector-curvature="0"
         id="path3835-3"
         d="m 698.8116,261.30039 c -28.81577,-0.71338 -64.81629,-28.63714 -64.61339,-57.45179 0.25278,-35.89818 45.59252,-69.7907 81.49726,-70.43526 30.40312,-0.54579 71.10001,26.7289 71.10718,57.12722 0.01,37.63041 -50.36015,71.69145 -87.99105,70.75983 z"
         style="fill:#595959;fill-opacity:1;stroke:#000000;stroke-width:5.68117142;stroke-linecap:butt;stroke-linejoin:miter;stroke-miterlimit:4;stroke-opacity:1;stroke-dasharray:none" />
      <path
         sodipodi:nodetypes="ccsccsc"
         inkscape:connector-curvature="0"
         id="path3862"
         d="m 8,26.362182 c 36.871907,9.613308 234.97256,61.373255 293,73.999998 7.52744,2.12674 12.5,-3 14,-8.999998 1.92052,-7.682062 -1.52721,-11.117608 -9,-14 C 263.02721,65.97979 40.062236,10.855068 23,6.3621821 c -17.062236,-4.4928855 -24,-4.5 -27.5,3 C -7.7205997,16.263467 -1.3719072,24.248874 8,26.362182 z"
         style="fill:#f37efb;fill-opacity:1;stroke:#000000;stroke-width:5;stroke-linecap:butt;stroke-linejoin:miter;stroke-miterlimit:4;stroke-opacity:1;stroke-dasharray:none" />
      <path
         inkscape:connector-curvature="0"
         id="path3866"
         d="m -697.20729,-111.53558 53.74012,-100.40916 176.77669,43.84062 -49.49747,101.823375 z"
         style="fill:#ffffff;fill-opacity:1;stroke:#000000;stroke-width:5;stroke-linecap:butt;stroke-linejoin:miter;stroke-miterlimit:4;stroke-opacity:1;stroke-dasharray:none" />
      <path
         sodipodi:nodetypes="ccczzzzzcc"
         inkscape:connector-curvature="0"
         id="path3868"
         d="m -485.07525,-56.38125 57.98275,-104.6518 c 0,0 54.14682,9.73411 77.78175,15.55635 17.97808,6.52934 21.92612,7.26397 31.1127,16.97056 9.18658,9.70659 9.88644,15.90509 7.07106,28.991377 -2.81537,13.086283 -6.28532,17.341327 -16.26345,28.991377 -9.97812,11.65005 -17.73593,14.203437 -29.69848,19.091883 -11.96255,4.888446 -26.5439,4.387693 -44.54773,4.949748 -18.00383,0.562055 -22.62742,-1.414214 -22.62742,-1.414214 z"
         style="fill:#ffffff;fill-opacity:1;stroke:#000000;stroke-width:5;stroke-linecap:butt;stroke-linejoin:miter;stroke-miterlimit:4;stroke-opacity:1;stroke-dasharray:none" />
      <path
         sodipodi:nodetypes="ccccccsscc"
         inkscape:connector-curvature="0"
         id="path3870"
         d="m -725.49156,-115.07111 56.56854,-98.99495 -90.50966,-30.40559 c 0,0 -14.14214,-2.82843 -26.16295,-2.82843 -16.26346,1.41421 -31.1127,7.07106 -41.0122,16.26345 -5.65685,4.24265 -15.55635,16.26346 -17.67767,24.74874 -5.65685,12.72792 -4.94974,27.57717 -1.41421,34.64823 3.53553,7.07107 15.55635,19.09189 26.87006,24.04163 11.31371,4.94975 26.16295,9.8995 26.16295,9.8995 z"
         style="fill:#ffffff;fill-opacity:1;stroke:#000000;stroke-width:5;stroke-linecap:butt;stroke-linejoin:miter;stroke-miterlimit:4;stroke-opacity:1;stroke-dasharray:none" />
      <path
         sodipodi:nodetypes="csssssssszsc"
         inkscape:connector-curvature="0"
         id="path3872"
         d="m -334.46151,-156.79041 c 0,0 11.84618,-23.41406 14.84924,-36.06245 3.60389,-15.17896 7.75998,-31.65096 3.53554,-46.66904 -1.96615,-6.98975 -7.03185,-13.17468 -12.72792,-17.67768 -19.40064,-15.33709 -44.95628,-20.99807 -68.58936,-28.28427 -23.01534,-7.09575 -47.00543,-10.59289 -70.71068,-14.84924 -20.40741,-3.66421 -40.89632,-7.04222 -61.51829,-9.19239 -19.72709,-2.05687 -39.58276,-4.42218 -59.39697,-3.53553 -14.28605,0.63927 -28.65323,2.51695 -42.42641,6.36396 -16.48467,4.60436 -34.96418,12.86829 -47.37615,19.79899 -12.41197,6.9307 -20.44302,14.17574 -27.57716,19.79899 -7.13414,5.62325 -15.55635,13.43503 -15.55635,13.43503"
         style="fill:none;stroke:#000000;stroke-width:5;stroke-linecap:butt;stroke-linejoin:miter;stroke-miterlimit:4;stroke-opacity:1;stroke-dasharray:none" />
      <path
         sodipodi:nodetypes="csssssssc"
         inkscape:connector-curvature="0"
         id="path3874"
         d="m -815.29412,-98.807657 c 0,0 -9.89949,67.175144 -8.48528,86.267027 1.41421,19.091883 4.94975,52.325902 10.6066,62.932503 5.65686,10.606602 26.87006,32.526912 39.59798,41.012194 12.72792,8.485281 57.84585,33.217273 76.36753,39.597983 22.13286,7.62476 57.27565,16.26345 79.19596,17.67767 21.92031,1.41421 68.55371,0.1238 82.02439,-2.12132 16.97056,-2.82843 35.35534,-10.60661 46.66905,-21.92031 14.53445,-14.53444 78.48885,-120.9152642 78.48885,-120.9152642"
         style="fill:none;stroke:#000000;stroke-width:5;stroke-linecap:butt;stroke-linejoin:miter;stroke-miterlimit:4;stroke-opacity:1;stroke-dasharray:none" />
    </g>
    <path
       inkscape:connector-curvature="0"
       id="path3046"
       d="M 174.65538,102.01067 405.17219,74.433501"
       style="fill:none;stroke:#000000;stroke-width:3;stroke-linecap:butt;stroke-linejoin:miter;stroke-miterlimit:4;stroke-opacity:1;stroke-dasharray:3, 3;stroke-dashoffset:0;marker-start:url(#DotM)" />
    <path
       inkscape:connector-curvature="0"
       id="path4260"
       d="M 176.06959,128.88072 404.46508,126.0523"
       style="fill:none;stroke:#000000;stroke-width:3;stroke-linecap:butt;stroke-linejoin:miter;stroke-miterlimit:4;stroke-opacity:1;stroke-dasharray:3, 3;stroke-dashoffset:0;marker-start:url(#DotM)" />
    <path
       inkscape:connector-curvature="0"
       id="path4444"
       d="M 246.07316,223.63303 403.05087,186.15637"
       style="fill:none;stroke:#000000;stroke-width:3;stroke-linecap:butt;stroke-linejoin:miter;stroke-miterlimit:4;stroke-opacity:1;stroke-dasharray:3, 3;stroke-dashoffset:0;marker-start:url(#DotM)" />
    <path
       inkscape:connector-curvature="0"
       id="path4628"
       d="m 268.70058,251.9173 134.35029,-4.24264"
       style="fill:none;stroke:#000000;stroke-width:3;stroke-linecap:butt;stroke-linejoin:miter;stroke-miterlimit:4;stroke-opacity:1;stroke-dasharray:3, 3;stroke-dashoffset:0;marker-start:url(#DotM)" />
    <path
       inkscape:connector-curvature="0"
       id="path4812"
       d="M 195.86858,157.165 33.941125,220.80461"
       style="fill:none;stroke:#000000;stroke-width:3;stroke-linecap:butt;stroke-linejoin:miter;stroke-miterlimit:4;stroke-opacity:1;stroke-dasharray:3, 3;stroke-dashoffset:0;marker-start:url(#DotM)" />
    <path
       inkscape:connector-curvature="0"
       id="path4996"
       d="M 140.00714,124.63808 33.234018,174.13556"
       style="fill:none;stroke:#000000;stroke-width:3;stroke-linecap:butt;stroke-linejoin:miter;stroke-miterlimit:4;stroke-opacity:1;stroke-dasharray:3, 3;stroke-dashoffset:0;marker-start:url(#DotM)" />
    <path
       inkscape:connector-curvature="0"
       id="path5180"
       d="M 157.68481,109.08173 32.526911,121.80966"
       style="fill:none;stroke:#000000;stroke-width:3;stroke-linecap:butt;stroke-linejoin:miter;stroke-miterlimit:4;stroke-opacity:1;stroke-dasharray:3, 3;stroke-dashoffset:0;marker-start:url(#DotM)" />
    <path
       inkscape:connector-curvature="0"
       id="path5364"
       d="M 142.12846,89.282743 33.234018,73.019287"
       style="fill:none;stroke:#000000;stroke-width:3;stroke-linecap:butt;stroke-linejoin:miter;stroke-miterlimit:4;stroke-opacity:1;stroke-dasharray:3, 3;stroke-dashoffset:0;marker-start:url(#DotM)" />
  </g>
</svg>
